<svg width="101" height="115" viewBox="0 0 101 115" fill="none" xmlns="http://www.w3.org/2000/svg">
<g clip-path="url(#clip0_2373_5875)">
<path d="M90.3536 2.30505H9.96069V22.2254H90.3536V2.30505Z" fill="#448AFF"/>
<path d="M0 13.6873H101.025V104.61C101.025 110.189 96.5018 114.712 90.9221 114.712H10.1025C4.52303 114.712 0 110.189 0 104.61V13.6873Z" fill="#05CE78"/>
<path d="M70.7415 45.5359C68.0257 42.8132 64.4262 41.1514 60.5924 40.8508C56.7586 40.5501 52.9435 41.6303 49.8367 43.8964C46.5773 41.4719 42.5202 40.3725 38.4826 40.8197C34.4449 41.2668 30.7267 43.2272 28.0765 46.306C25.4264 49.3849 24.0412 53.3534 24.2 57.4128C24.3588 61.4717 26.0497 65.3203 28.9322 68.1828L44.8412 84.1173C46.1735 85.4283 47.9679 86.1629 49.8367 86.1629C51.7061 86.1629 53.5004 85.4283 54.8324 84.1173L70.7415 68.1828C73.7327 65.1731 75.4113 61.1022 75.4113 56.8593C75.4113 52.6159 73.7327 48.5456 70.7415 45.5359ZM67.1291 64.6473L51.2205 80.5564C51.0393 80.739 50.8237 80.8843 50.5862 80.9832C50.3486 81.0822 50.0939 81.1333 49.8367 81.1333C49.5796 81.1333 49.3248 81.0822 49.0873 80.9832C48.8497 80.8843 48.6347 80.739 48.4535 80.5564L32.5444 64.5704C30.5353 62.5165 29.4103 59.7577 29.4103 56.8847C29.4103 54.0121 30.5353 51.2533 32.5444 49.1994C34.5917 47.178 37.3529 46.0446 40.23 46.0446C43.107 46.0446 45.8681 47.178 47.9153 49.1994C48.1538 49.4394 48.4368 49.6301 48.7494 49.7601C49.0615 49.8901 49.3961 49.957 49.7345 49.957C50.0724 49.957 50.4074 49.8901 50.7195 49.7601C51.0317 49.6301 51.3151 49.4394 51.5531 49.1994C53.6007 47.178 56.3619 46.0446 59.2388 46.0446C62.1157 46.0446 64.8769 47.178 66.9245 49.1994C68.9611 51.226 70.1231 53.97 70.1613 56.8431C70.1995 59.7161 69.1112 62.4902 67.1291 64.5704V64.6473Z" fill="white"/>
<path d="M67.1304 64.6473L51.2218 80.5564C51.0406 80.739 50.8251 80.8843 50.5875 80.9832C50.35 81.0822 50.0952 81.1333 49.8381 81.1333C49.5809 81.1333 49.3262 81.0822 49.0886 80.9832C48.8511 80.8843 48.636 80.739 48.4548 80.5564L32.5457 64.5703C30.5367 62.5165 29.4116 59.7577 29.4116 56.8846C29.4116 54.0121 30.5367 51.2533 32.5457 49.1994C34.5931 47.178 37.3543 46.0446 40.2313 46.0446C43.1083 46.0446 45.8695 47.178 47.9167 49.1994C48.1552 49.4394 48.4381 49.6301 48.7507 49.7601C49.0628 49.8901 49.3974 49.957 49.7358 49.957C50.0737 49.957 50.4088 49.8901 50.7209 49.7601C51.033 49.6301 51.3164 49.4394 51.5545 49.1994C53.6021 47.178 56.3633 46.0446 59.2402 46.0446C62.117 46.0446 64.8782 47.178 66.9258 49.1994C68.9625 51.226 70.1244 53.97 70.1626 56.8431C70.2009 59.7161 69.1125 62.4902 67.1304 64.5703V64.6473Z" fill="white"/>
</g>
<defs>
<clipPath id="clip0_2373_5875">
<rect width="100.373" height="114.712" fill="white"/>
</clipPath>
</defs>
</svg>
