<svg width="57" height="25" viewBox="0 0 57 25" fill="none" xmlns="http://www.w3.org/2000/svg">
<g clip-path="url(#clip0_2461_6299)">
<path d="M16.8098 0.802328L3.22873 0.747439H3.21689C2.79465 0.746874 2.37643 0.829552 1.98617 0.990746C1.5959 1.15194 1.24124 1.38849 0.942469 1.68686C0.643695 1.98524 0.406672 2.33958 0.244955 2.72963C0.0832382 3.11968 -1.98638e-07 3.53778 1.80474e-07 3.96003V21.0411C-0.000141238 21.4629 0.0828304 21.8805 0.244174 22.2702C0.405517 22.6599 0.642073 23.014 0.940312 23.3123C1.23856 23.6105 1.59265 23.8471 1.98235 24.0084C2.37205 24.1697 2.78973 24.2527 3.21151 24.2526H3.22873L16.8163 24.2095V23.3905C16.8169 19.3542 15.2883 15.4675 12.5382 12.5129C15.2969 9.55828 16.8247 5.66257 16.8098 1.62027V0.802328ZM6.40257 8.293C4.74839 7.61923 3.42783 7.49442 1.64342 7.40398V7.37389C2.88713 7.18609 4.03654 6.60043 4.91952 5.70464C5.8025 4.80886 6.37154 3.65114 6.54143 2.40486L9.51401 2.41777C9.31486 4.79304 8.20312 6.73026 6.40257 8.293ZM2.10621 2.84934C2.25118 2.70327 2.4239 2.58763 2.6142 2.50925C2.80431 2.43083 3.00801 2.39061 3.21366 2.39086L4.57296 2.40486C4.57296 3.03446 4.23287 3.81904 3.65815 4.40559C3.08344 4.99214 2.30101 5.3204 1.65849 5.3204L1.64342 3.95464C1.64346 3.74893 1.68439 3.54528 1.76384 3.35553C1.84329 3.16578 1.95967 2.99371 2.10621 2.84934ZM1.64342 17.6509V14.6945C3.78838 14.8979 5.56956 15.4543 7.08816 16.9815C8.60671 18.5087 9.31168 20.4255 9.50325 22.578L6.53925 22.5855C6.36332 21.3458 5.7917 20.1961 4.90953 19.3075C4.02736 18.419 2.88181 17.839 1.64342 17.6542V17.6509ZM3.22873 22.6102C2.81256 22.6102 2.41344 22.4449 2.11917 22.1506C1.82489 21.8564 1.65957 21.4572 1.65957 21.0411V19.7259C2.28702 19.7259 3.08559 20.0563 3.65923 20.6397C4.23287 21.223 4.57403 22.0118 4.57403 22.5844L3.22873 22.6102ZM14.8048 22.5747L11.617 22.5844C11.4193 20.0026 10.3057 17.5763 8.47696 15.7431C6.64826 13.9099 4.22476 12.7902 1.64342 12.5861L1.65849 9.32617C5.1735 9.54142 8.02983 10.8329 10.5181 13.3276C13.0064 15.8224 14.5992 19.0629 14.8037 22.5833L14.8048 22.5747ZM10.9777 11.0363C10.079 10.2485 9.48169 9.89553 8.43341 9.32188C10.2936 7.48472 11.4214 5.03322 11.6062 2.42531L14.6369 2.41777C14.4583 5.74336 13.2453 8.5954 10.9777 11.0363Z" fill="#2376F3"/>
<path d="M22.2402 18.657H24.7102V16.13L25.9651 14.7621L28.264 18.657H31.0568L27.7323 13.0896L30.9815 9.3647H28.0552L24.7489 13.2607H24.7102V6.17151H22.2402V18.657Z" fill="#3E4B5B"/>
<path d="M35.5758 18.8271C38.4644 18.8271 40.4975 16.8511 40.4975 14.0196C40.4975 11.1686 38.4644 9.23132 35.5758 9.23132C32.6118 9.23132 30.6348 11.245 30.6348 14.0196C30.6348 16.7941 32.6097 18.8271 35.5758 18.8271ZM35.5758 16.5842C34.1508 16.5842 33.1629 15.4638 33.1629 14.0196C33.1629 12.5558 34.1315 11.4538 35.5758 11.4538C36.9437 11.4538 37.9704 12.4988 37.9704 14.0196C37.9704 15.5403 36.9061 16.5842 35.5758 16.5842Z" fill="#3E4B5B"/>
<path d="M41.6895 18.6571H44.1788V14.3629C44.1788 12.9562 44.9967 11.9305 46.5358 11.9305C46.6875 11.9305 46.9351 11.9305 47.2009 11.9488V9.23132H47.0104C45.9277 9.23132 44.9204 9.76947 44.2176 10.7144H44.1788V9.36477H41.6895V18.6571Z" fill="#3E4B5B"/>
<path d="M51.7099 18.8274C52.9261 18.8274 53.857 18.3711 54.5027 17.5359L54.5404 17.5553V18.6574H56.9157V9.364H54.4263V10.4327L54.3887 10.4521C53.7235 9.65347 52.7355 9.2359 51.6528 9.2359C49.1635 9.2359 47.2822 11.2302 47.2822 14.0435C47.2822 16.9127 49.1635 18.8317 51.7099 18.8317V18.8274ZM52.1845 16.5888C50.7779 16.5888 49.8093 15.5437 49.8093 14.0618C49.8093 12.4657 50.836 11.4584 52.1845 11.4584C53.5147 11.4584 54.5404 12.5604 54.5404 14.0618C54.5404 15.5825 53.4577 16.5888 52.1845 16.5888Z" fill="#3E4B5B"/>
</g>
<defs>
<clipPath id="clip0_2461_6299">
<rect width="57" height="23.5052" fill="white" transform="translate(0 0.747437)"/>
</clipPath>
</defs>
</svg>
