<svg width="741" height="116" viewBox="0 0 741 116" fill="none" xmlns="http://www.w3.org/2000/svg">
<g clip-path="url(#clip0_2373_5861)">
<path d="M90.3536 3.18643H9.96069V23.1068H90.3536V3.18643Z" fill="#448AFF"/>
<path d="M0 14.5686H101.025V105.491C101.025 111.07 96.5018 115.593 90.9221 115.593H10.1025C4.52303 115.593 0 111.07 0 105.491V14.5686Z" fill="#05CE78"/>
<path d="M70.7428 46.4173C68.027 43.6946 64.4274 42.0328 60.5936 41.7321C56.7599 41.4314 52.9447 42.5117 49.838 44.7777C46.5785 42.3533 42.5215 41.2539 38.4838 41.7011C34.4462 42.1482 30.7279 44.1085 28.0777 47.1874C25.4276 50.2663 24.0425 54.2348 24.2012 58.2942C24.36 62.3531 26.0509 66.2017 28.9335 69.0642L44.8425 84.9986C46.1747 86.3097 47.9691 87.0443 49.838 87.0443C51.7073 87.0443 53.5016 86.3097 54.8337 84.9986L70.7428 69.0642C73.7339 66.0544 75.4125 61.9836 75.4125 57.7407C75.4125 53.4973 73.7339 49.427 70.7428 46.4173ZM67.1303 65.5287L51.2217 81.4378C51.0405 81.6204 50.825 81.7657 50.5874 81.8646C50.3499 81.9635 50.0951 82.0147 49.838 82.0147C49.5808 82.0147 49.3261 81.9635 49.0885 81.8646C48.851 81.7657 48.6359 81.6204 48.4547 81.4378L32.5456 65.4517C30.5365 63.3979 29.4115 60.6391 29.4115 57.766C29.4115 54.8935 30.5365 52.1346 32.5456 50.0808C34.5929 48.0594 37.3542 46.926 40.2312 46.926C43.1082 46.926 45.8694 48.0594 47.9165 50.0808C48.155 50.3208 48.438 50.5115 48.7506 50.6415C49.0627 50.7715 49.3973 50.8384 49.7357 50.8384C50.0736 50.8384 50.4087 50.7715 50.7208 50.6415C51.0329 50.5115 51.3163 50.3208 51.5543 50.0808C53.6019 48.0594 56.3632 46.926 59.24 46.926C62.1169 46.926 64.8781 48.0594 66.9257 50.0808C68.9623 52.1074 70.1243 54.8514 70.1625 57.7244C70.2008 60.5975 69.1124 63.3716 67.1303 65.4517V65.5287Z" fill="white"/>
<path d="M67.1304 65.5287L51.2218 81.4378C51.0406 81.6204 50.8251 81.7657 50.5875 81.8646C50.35 81.9635 50.0952 82.0147 49.8381 82.0147C49.5809 82.0147 49.3262 81.9635 49.0886 81.8646C48.8511 81.7657 48.636 81.6204 48.4548 81.4378L32.5457 65.4517C30.5367 63.3979 29.4116 60.6391 29.4116 57.766C29.4116 54.8935 30.5367 52.1346 32.5457 50.0808C34.5931 48.0594 37.3543 46.926 40.2313 46.926C43.1083 46.926 45.8695 48.0594 47.9167 50.0808C48.1552 50.3208 48.4381 50.5115 48.7507 50.6415C49.0628 50.7715 49.3974 50.8384 49.7358 50.8384C50.0737 50.8384 50.4088 50.7715 50.7209 50.6415C51.033 50.5115 51.3164 50.3208 51.5545 50.0808C53.6021 48.0594 56.3633 46.926 59.2402 46.926C62.117 46.926 64.8782 48.0594 66.9258 50.0808C68.9625 52.1074 70.1244 54.8514 70.1626 57.7244C70.2009 60.5975 69.1125 63.3716 67.1304 65.4517V65.5287Z" fill="white"/>
<path d="M129.876 111.865C126.046 111.865 123.086 110.824 120.997 108.739C118.907 106.568 117.863 103.572 117.863 99.751V29.7998C117.863 25.805 118.907 22.8089 120.997 20.8116C123.086 18.7274 126.046 17.6853 129.876 17.6853C133.794 17.6853 136.754 18.7274 138.756 20.8116C140.846 22.8089 141.89 25.805 141.89 29.7998V58.1971H142.151L173.884 23.2866C175.538 21.5497 177.279 20.2037 179.107 19.2484C181.022 18.2063 183.156 17.6853 185.506 17.6853C189.163 17.6853 191.774 18.6405 193.341 20.5511C194.995 22.3747 195.735 24.5458 195.561 27.0642C195.474 29.4958 194.473 31.7537 192.558 33.8379L160.956 67.3157V57.5456L194.125 94.9311C196.388 97.4495 197.52 100.055 197.52 102.747C197.52 105.352 196.606 107.524 194.778 109.26C193.037 110.997 190.425 111.865 186.943 111.865C183.982 111.865 181.588 111.301 179.76 110.172C178.019 108.956 176.104 107.176 174.014 104.831L142.151 69.2696H141.89V99.751C141.89 103.572 140.889 106.568 138.887 108.739C136.885 110.824 133.881 111.865 129.876 111.865Z" fill="#05CE78"/>
<path d="M226.109 111.866C222.453 111.866 219.624 110.78 217.621 108.609C215.619 106.438 214.618 103.312 214.618 99.23V58.0671C214.618 53.9853 215.619 50.8589 217.621 48.688C219.624 46.5169 222.453 45.4314 226.109 45.4314C229.853 45.4314 232.726 46.5169 234.728 48.688C236.817 50.8589 237.862 53.9853 237.862 58.0671V99.23C237.862 103.312 236.861 106.438 234.859 108.609C232.856 110.78 229.94 111.866 226.109 111.866ZM226.109 36.1827C222.018 36.1827 218.84 35.2274 216.577 33.3169C214.4 31.4064 213.312 28.6274 213.312 24.9801C213.312 21.4195 214.4 18.684 216.577 16.7735C218.84 14.8629 222.018 13.9077 226.109 13.9077C230.375 13.9077 233.596 14.8629 235.773 16.7735C237.949 18.684 239.037 21.4195 239.037 24.9801C239.037 28.6274 237.949 31.4064 235.773 33.3169C233.596 35.2274 230.375 36.1827 226.109 36.1827Z" fill="#05CE78"/>
<path d="M262.836 111.865C259.18 111.865 256.351 110.867 254.348 108.87C252.346 106.872 251.345 103.963 251.345 100.142V57.0246C251.345 53.2907 252.303 50.4249 254.218 48.4274C256.22 46.43 259.05 45.4313 262.706 45.4313C266.362 45.4313 269.148 46.43 271.064 48.4274C272.979 50.4249 273.936 53.2907 273.936 57.0246V63.1469L272.5 57.8061C274.589 53.7247 277.549 50.5984 281.38 48.4274C285.298 46.2563 289.737 45.1708 294.7 45.1708C299.836 45.1708 304.058 46.1695 307.367 48.1668C310.675 50.0774 313.156 53.1168 314.81 57.2851C316.464 61.3669 317.291 66.5337 317.291 72.7865V100.142C317.291 103.963 316.29 106.872 314.288 108.87C312.285 110.867 309.412 111.865 305.669 111.865C301.926 111.865 299.052 110.867 297.05 108.87C295.048 106.872 294.047 103.963 294.047 100.142V73.6985C294.047 69.7906 293.35 67.0117 291.958 65.3618C290.651 63.7114 288.693 62.8864 286.081 62.8864C282.598 62.8864 279.813 64.0153 277.723 66.2733C275.634 68.4447 274.589 71.397 274.589 75.1314V100.142C274.589 107.958 270.672 111.865 262.836 111.865Z" fill="#05CE78"/>
<path d="M355.611 112.126C350.126 112.126 345.251 110.78 340.985 108.088C336.806 105.396 333.498 101.531 331.061 96.4946C328.71 91.4578 327.535 85.509 327.535 78.6483C327.535 71.614 328.71 65.6223 331.061 60.672C333.498 55.7222 336.806 51.9008 340.985 49.2089C345.251 46.5169 350.126 45.1708 355.611 45.1708C360.399 45.1708 364.708 46.2997 368.539 48.5576C372.37 50.8153 374.938 53.7247 376.243 57.2851H374.807V29.409C374.807 25.5879 375.808 22.6787 377.81 20.6813C379.813 18.6839 382.686 17.6853 386.429 17.6853C390.085 17.6853 392.915 18.6839 394.917 20.6813C397.007 22.6787 398.051 25.5879 398.051 29.409V100.142C398.051 103.963 397.05 106.872 395.048 108.87C393.132 110.867 390.303 111.865 386.56 111.865C382.903 111.865 380.074 110.867 378.072 108.87C376.069 106.872 375.068 103.963 375.068 100.142V92.7167L376.504 99.1C375.286 103.008 372.718 106.177 368.8 108.609C364.97 110.954 360.573 112.126 355.611 112.126ZM363.054 95.0616C365.405 95.0616 367.494 94.4971 369.323 93.3682C371.151 92.1522 372.544 90.3723 373.501 88.0274C374.546 85.596 375.068 82.4696 375.068 78.6483C375.068 72.83 373.936 68.6617 371.673 66.1432C369.41 63.5379 366.536 62.2354 363.054 62.2354C360.704 62.2354 358.614 62.7999 356.786 63.9288C354.958 65.0578 353.521 66.8377 352.477 69.2696C351.432 71.614 350.91 74.7404 350.91 78.6483C350.91 84.38 352.042 88.5484 354.305 91.1538C356.568 93.7592 359.485 95.0616 363.054 95.0616Z" fill="#05CE78"/>
<path d="M425.098 111.866C421.268 111.866 418.307 110.824 416.218 108.739C414.129 106.568 413.084 103.572 413.084 99.7511V30.9722C413.084 27.0643 414.129 24.0683 416.218 21.9841C418.394 19.8998 421.398 18.8577 425.228 18.8577H457.353C467.8 18.8577 475.853 21.4196 481.513 26.5433C487.258 31.5801 490.13 38.6143 490.13 47.6459C490.13 53.4643 488.826 58.5446 486.211 62.8865C483.687 67.1418 479.988 70.4422 475.112 72.7866C470.324 75.0445 464.404 76.1735 457.353 76.1735L458.397 73.8286H464.665C468.409 73.8286 471.717 74.7405 474.59 76.5644C477.463 78.3014 479.859 80.9933 481.771 84.6406L488.3 96.3642C489.696 98.8826 490.346 101.357 490.259 103.789C490.173 106.134 489.218 108.088 487.387 109.651C485.647 111.128 483.08 111.866 479.682 111.866C476.288 111.866 473.502 111.171 471.325 109.782C469.236 108.392 467.364 106.221 465.71 103.268L453.827 81.5143C452.782 79.6038 451.433 78.3014 449.779 77.6064C448.212 76.8249 446.384 76.434 444.294 76.434H437.112V99.7511C437.112 103.572 436.111 106.568 434.109 108.739C432.106 110.824 429.103 111.866 425.098 111.866ZM437.112 59.4996H453.044C457.657 59.4996 461.183 58.5881 463.621 56.7642C466.059 54.9408 467.277 52.1184 467.277 48.2972C467.277 44.6498 466.059 41.9143 463.621 40.0906C461.183 38.1801 457.657 37.2248 453.044 37.2248H437.112V59.4996Z" fill="#05CE78"/>
<path d="M525.027 112.126C520.065 112.126 515.668 111.214 511.84 109.391C508.097 107.567 505.134 105.092 502.959 101.965C500.87 98.7525 499.823 95.1051 499.823 91.0233C499.823 86.334 501.042 82.6431 503.48 79.9512C505.918 77.2588 509.837 75.3484 515.233 74.2194C520.629 73.0035 527.813 72.396 536.78 72.396H543.964V83.3381H536.78C533.386 83.3381 530.557 83.5986 528.291 84.1196C526.116 84.5535 524.506 85.292 523.459 86.334C522.417 87.2894 521.896 88.5484 521.896 90.1118C521.896 92.1088 522.589 93.7592 523.985 95.0616C525.462 96.3641 527.55 97.0156 530.251 97.0156C532.426 97.0156 534.342 96.5381 535.996 95.5826C537.741 94.6272 539.131 93.3247 540.178 91.6748C541.22 89.9378 541.741 87.9404 541.741 85.6825V70.5721C541.741 67.4457 540.914 65.2313 539.26 63.9288C537.693 62.6259 534.954 61.9749 531.035 61.9749C528.946 61.9749 526.594 62.2354 523.985 62.7564C521.37 63.1904 518.455 64.0153 515.233 65.2313C512.882 66.0997 510.879 66.2298 509.225 65.6223C507.571 65.0143 506.266 63.9723 505.311 62.4959C504.441 61.0194 504.006 59.413 504.006 57.6761C504.092 55.9391 504.656 54.2892 505.702 52.7263C506.835 51.1628 508.532 49.9469 510.793 49.0789C514.975 47.5155 518.804 46.4734 522.288 45.9524C525.854 45.4313 529.118 45.1708 532.081 45.1708C539.217 45.1708 545.096 46.2129 549.709 48.2971C554.412 50.2944 557.892 53.4207 560.157 57.6761C562.504 61.8444 563.68 67.2287 563.68 73.8285V100.142C563.68 103.963 562.767 106.872 560.941 108.87C559.11 110.867 556.458 111.865 552.973 111.865C549.403 111.865 546.659 110.867 544.748 108.87C542.917 106.872 542.004 103.963 542.004 100.142V96.7551L542.788 98.5785C542.353 101.357 541.349 103.746 539.786 105.743C538.219 107.741 536.173 109.304 533.644 110.433C531.121 111.561 528.248 112.126 525.027 112.126Z" fill="#05CE78"/>
<path d="M588.41 111.866C584.753 111.866 581.924 110.78 579.921 108.609C577.918 106.438 576.92 103.312 576.92 99.23V58.0671C576.92 53.9853 577.918 50.8589 579.921 48.688C581.924 46.5169 584.753 45.4314 588.41 45.4314C592.152 45.4314 595.025 46.5169 597.028 48.688C599.116 50.8589 600.163 53.9853 600.163 58.0671V99.23C600.163 103.312 599.159 106.438 597.157 108.609C595.154 110.78 592.238 111.866 588.41 111.866ZM588.41 36.1827C584.318 36.1827 581.14 35.2274 578.874 33.3169C576.7 31.4064 575.61 28.6274 575.61 24.9801C575.61 21.4195 576.7 18.684 578.874 16.7735C581.14 14.8629 584.318 13.9077 588.41 13.9077C592.673 13.9077 595.895 14.8629 598.074 16.7735C600.249 18.684 601.339 21.4195 601.339 24.9801C601.339 28.6274 600.249 31.4064 598.074 33.3169C595.895 35.2274 592.673 36.1827 588.41 36.1827Z" fill="#05CE78"/>
<path d="M639.242 112.126C635.408 112.126 631.494 111.822 627.488 111.214C623.569 110.693 619.999 109.695 616.777 108.218C614.602 107.35 613.035 106.177 612.079 104.701C611.209 103.225 610.774 101.661 610.774 100.011C610.86 98.3615 611.338 96.8851 612.208 95.5826C613.164 94.1932 614.383 93.2377 615.864 92.7167C617.432 92.1088 619.172 92.1523 621.088 92.8472C624.745 94.1497 628.009 95.1051 630.882 95.7131C633.841 96.2341 636.67 96.4946 639.371 96.4946C642.592 96.4946 644.901 96.0601 646.292 95.1916C647.682 94.2367 648.38 93.0207 648.38 91.5443C648.38 90.2418 647.902 89.2433 646.946 88.5484C646.072 87.8539 644.81 87.3759 643.156 87.1154L628.664 84.771C623.263 83.8156 619.086 81.8616 616.127 78.9088C613.164 75.8694 611.687 71.918 611.687 67.0552C611.687 62.5394 612.949 58.6745 615.472 55.4617C618.087 52.1618 621.609 49.6434 626.05 47.9063C630.576 46.0826 635.757 45.1708 641.588 45.1708C645.508 45.1708 649.078 45.4747 652.3 46.0826C655.521 46.6037 658.652 47.6024 661.701 49.0789C663.618 49.8604 664.966 50.9893 665.75 52.4653C666.533 53.9417 666.839 55.5052 666.663 57.1551C666.49 58.718 665.922 60.1945 664.966 61.5839C664.096 62.8864 662.877 63.7983 661.309 64.3193C659.742 64.7538 657.916 64.6233 655.822 63.9288C652.95 62.7999 650.383 61.9749 648.117 61.4539C645.943 60.9325 643.897 60.672 641.98 60.672C638.415 60.672 635.886 61.1499 634.409 62.1049C632.928 63.0604 632.187 64.2758 632.187 65.7523C632.187 66.8812 632.579 67.8367 633.363 68.6182C634.146 69.3131 635.365 69.7906 637.019 70.0511L651.516 72.526C657.089 73.3945 661.352 75.3049 664.311 78.2578C667.36 81.1237 668.885 85.0315 668.885 89.9813C668.885 97.0156 666.185 102.486 660.788 106.395C655.387 110.216 648.208 112.126 639.242 112.126Z" fill="#05CE78"/>
<path d="M713.427 112.126C705.588 112.126 698.801 110.78 693.056 108.088C687.397 105.309 683.042 101.401 679.993 96.3641C676.948 91.3273 675.424 85.3785 675.424 78.5183C675.424 71.918 676.862 66.1432 679.735 61.1929C682.693 56.1561 686.699 52.2483 691.746 49.4694C696.884 46.6037 702.715 45.1708 709.244 45.1708C714.034 45.1708 718.388 45.9524 722.302 47.5155C726.222 48.9919 729.572 51.2063 732.359 54.1587C735.145 57.0246 737.234 60.4985 738.63 64.5798C740.107 68.6616 740.848 73.221 740.848 78.2578C740.848 79.9947 740.37 81.2972 739.414 82.1656C738.453 82.9471 736.928 83.3381 734.84 83.3381H694.882V72.396H723.87L721.782 74.0894C721.782 70.8761 721.347 68.2707 720.477 66.2733C719.607 64.2758 718.302 62.7564 716.557 61.7144C714.904 60.672 712.815 60.151 710.291 60.151C707.591 60.151 705.244 60.8025 703.241 62.1049C701.325 63.3209 699.843 65.1443 698.801 67.5762C697.754 70.0076 697.233 73.047 697.233 76.6943V77.8668C697.233 84.0326 698.581 88.4614 701.282 91.1538C704.068 93.7592 708.332 95.0616 714.077 95.0616C715.993 95.0616 718.168 94.8446 720.606 94.4102C723.134 93.8892 725.524 93.1947 727.79 92.3262C730.055 91.4578 732.01 91.3273 733.664 91.9353C735.318 92.4562 736.584 93.4117 737.454 94.8011C738.41 96.1036 738.931 97.6235 739.022 99.3605C739.108 101.01 738.716 102.66 737.846 104.31C736.976 105.873 735.537 107.089 733.535 107.958C730.49 109.347 727.226 110.389 723.741 111.084C720.348 111.778 716.906 112.126 713.427 112.126Z" fill="#05CE78"/>
</g>
<defs>
<clipPath id="clip0_2373_5861">
<rect width="740.847" height="114.712" fill="white" transform="translate(0 0.881348)"/>
</clipPath>
</defs>
</svg>
